<svg id="svg" version="1.1" xmlns="http://www.w3.org/2000/svg" xmlns:xlink="http://www.w3.org/1999/xlink" width="400" height="305.18518518518516" viewBox="0, 0, 400,305.18518518518516"><g id="svgg"><path id="path0" d="M189.834 59.468 C 164.099 59.556,165.725 59.398,165.357 61.850 C 165.088 63.645,165.330 64.300,166.475 64.871 C 167.900 65.582,214.651 65.584,217.044 64.874 L 218.626 64.404 218.626 62.439 C 218.626 59.100,221.146 59.360,189.834 59.468 M167.210 80.231 L 140.374 80.309 139.810 80.959 C 139.264 81.588,139.246 84.876,139.241 183.914 L 139.236 286.220 139.900 286.927 L 140.564 287.634 154.058 287.634 C 167.213 287.634,167.571 287.618,168.350 287.006 L 169.148 286.378 169.230 265.608 L 169.313 244.838 170.472 243.776 C 171.109 243.192,171.756 242.386,171.909 241.984 C 172.599 240.169,172.330 240.197,189.574 240.145 C 210.210 240.082,212.059 240.175,212.931 241.323 C 213.292 241.799,214.137 242.760,214.809 243.460 L 216.031 244.733 216.115 265.557 L 216.199 286.381 216.996 287.007 C 218.087 287.865,244.474 288.002,245.322 287.154 C 245.931 286.544,245.862 298.891,245.911 182.459 C 245.949 93.041,245.901 81.342,245.496 80.852 C 244.982 80.229,224.279 80.065,167.210 80.231 M168.117 98.388 C 168.523 98.573,168.855 98.897,168.855 99.109 C 168.855 99.482,169.901 100.626,171.299 101.782 C 171.935 102.308,171.970 102.536,171.854 105.409 L 171.731 108.476 170.293 109.689 C 169.502 110.357,168.855 111.092,168.855 111.322 C 168.855 112.985,159.330 113.616,157.895 112.048 C 156.735 110.781,155.698 109.724,154.974 109.073 C 154.239 108.412,154.198 108.212,154.198 105.235 L 154.198 102.095 155.329 101.200 C 156.481 100.290,156.912 99.846,157.660 98.805 C 158.418 97.750,166.049 97.445,168.117 98.388 M198.079 98.870 C 198.980 99.973,200.074 101.098,200.915 101.786 C 201.567 102.320,201.597 102.518,201.461 105.354 L 201.316 108.357 199.818 109.876 C 198.995 110.712,198.098 111.665,197.826 111.995 C 196.703 113.353,188.108 113.138,187.195 111.729 C 186.742 111.030,186.431 110.712,184.597 109.073 C 183.854 108.409,183.817 108.222,183.817 105.174 L 183.817 101.972 185.191 101.004 C 185.947 100.471,186.565 99.877,186.565 99.683 C 186.565 97.654,196.510 96.952,198.079 98.870 M227.634 98.820 C 227.969 99.259,228.917 100.272,229.738 101.071 L 231.232 102.524 231.077 105.487 L 230.922 108.449 229.583 109.758 C 228.847 110.478,227.969 111.421,227.634 111.853 C 226.958 112.721,226.454 112.783,220.664 112.710 C 217.818 112.674,217.630 112.630,217.000 111.869 C 215.978 110.634,215.149 109.826,214.253 109.194 C 213.452 108.628,213.435 108.549,213.435 105.303 L 213.435 101.989 214.730 101.051 C 215.442 100.535,216.280 99.709,216.593 99.215 C 216.906 98.721,217.457 98.254,217.818 98.178 C 218.178 98.101,218.748 97.971,219.084 97.889 C 221.142 97.383,227.025 98.023,227.634 98.820 M197.568 121.969 C 197.826 122.070,198.292 122.626,198.603 123.204 C 198.915 123.782,199.630 124.568,200.194 124.952 C 202.272 126.366,202.079 131.223,199.860 133.349 C 199.098 134.080,198.473 134.810,198.473 134.972 C 198.473 136.186,197.338 136.489,192.780 136.489 L 188.308 136.489 186.063 134.243 L 183.817 131.997 183.817 128.926 C 183.817 125.848,184.541 124.275,185.957 124.275 C 186.101 124.275,186.301 124.015,186.401 123.698 C 186.502 123.381,186.936 122.742,187.365 122.279 L 188.146 121.436 192.623 121.611 C 195.085 121.707,197.310 121.868,197.568 121.969 M227.704 122.196 C 227.917 122.373,228.092 122.689,228.092 122.899 C 228.092 123.109,228.744 123.882,229.542 124.618 L 230.992 125.954 230.992 128.925 L 230.992 131.896 229.701 133.200 C 228.991 133.917,228.030 134.926,227.564 135.443 L 226.718 136.382 222.181 136.187 L 217.645 135.993 216.672 134.867 C 216.137 134.247,215.559 133.740,215.387 133.740 C 212.551 133.740,212.636 125.479,215.485 124.228 C 215.617 124.170,216.105 123.614,216.568 122.993 C 217.318 121.989,217.589 121.849,219.011 121.733 C 221.492 121.529,227.271 121.837,227.704 122.196 M168.892 123.053 C 169.269 123.725,169.685 124.275,169.817 124.275 C 169.948 124.275,170.491 124.701,171.025 125.222 L 171.994 126.170 171.828 129.184 C 171.673 131.986,171.300 133.130,170.542 133.130 C 170.252 133.130,168.855 134.707,168.855 135.034 C 168.855 136.133,167.516 136.468,163.085 136.478 L 158.690 136.489 156.444 134.243 L 154.198 131.997 154.198 129.024 L 154.198 126.052 155.649 124.613 C 156.447 123.821,157.338 122.872,157.631 122.503 C 158.139 121.861,158.377 121.832,163.184 121.832 L 168.205 121.832 168.892 123.053 M166.215 142.554 C 167.817 142.732,168.385 142.925,168.635 143.378 C 168.815 143.703,169.641 144.637,170.470 145.453 L 171.978 146.936 171.853 149.807 L 171.727 152.677 170.291 154.034 C 169.501 154.780,168.855 155.547,168.855 155.738 C 168.855 156.901,167.581 157.231,163.053 157.244 L 158.626 157.257 157.046 155.651 C 156.177 154.768,155.181 153.805,154.833 153.511 C 153.348 152.261,154.152 145.344,155.781 145.344 C 155.916 145.344,156.448 144.760,156.964 144.046 C 158.173 142.371,160.781 141.950,166.215 142.554 M225.885 142.594 C 227.458 142.595,227.515 142.626,228.296 143.921 C 228.737 144.649,229.489 145.508,229.968 145.829 C 231.474 146.838,231.695 152.419,230.271 153.504 C 229.060 154.428,228.092 155.433,228.092 155.766 C 228.092 156.898,226.786 157.231,222.325 157.242 L 217.932 157.252 215.683 154.989 L 213.435 152.726 213.435 149.657 C 213.435 146.450,213.747 145.680,215.245 145.195 C 215.509 145.109,216.033 144.499,216.409 143.839 C 217.229 142.400,217.612 142.293,221.374 142.462 C 222.969 142.534,225.000 142.593,225.885 142.594 M198.337 143.969 C 198.956 144.725,199.642 145.344,199.862 145.344 C 201.635 145.344,202.300 152.250,200.648 153.509 C 199.442 154.427,198.473 155.434,198.473 155.766 C 198.473 156.898,197.169 157.231,192.696 157.242 L 188.293 157.252 186.699 155.649 C 185.822 154.767,184.815 153.805,184.461 153.511 C 182.787 152.123,183.717 145.804,185.687 145.179 C 185.985 145.084,186.306 144.763,186.400 144.466 C 186.941 142.760,187.480 142.595,192.511 142.595 L 197.211 142.595 198.337 143.969 M57.146 157.815 C 56.197 158.764,56.158 165.754,56.467 278.397 C 56.487 285.989,56.521 286.444,57.099 287.023 C 57.702 287.626,58.117 287.634,90.522 287.634 L 123.335 287.634 123.958 286.965 C 124.942 285.908,124.942 158.977,123.958 157.920 L 123.335 157.252 90.522 157.252 C 59.032 157.252,57.687 157.275,57.146 157.815 M79.489 166.910 C 80.332 167.929,81.231 168.828,82.251 169.672 C 84.120 171.218,83.064 178.321,80.965 178.321 C 80.849 178.321,80.425 178.855,80.021 179.507 C 78.827 181.440,73.332 181.848,71.765 180.120 C 70.494 178.720,70.025 178.241,69.201 177.500 C 68.550 176.916,68.430 176.469,68.241 173.952 C 67.978 170.444,68.079 170.090,69.611 169.144 C 70.278 168.733,70.827 168.304,70.831 168.191 C 70.916 166.080,77.942 165.040,79.489 166.910 M109.052 166.908 C 110.100 168.076,110.960 168.920,111.869 169.672 C 113.588 171.093,112.925 177.490,110.992 178.130 C 110.656 178.242,110.056 178.862,109.658 179.508 C 108.669 181.117,102.938 181.833,101.800 180.490 C 100.922 179.455,99.610 178.182,98.746 177.527 C 96.886 176.116,97.692 168.855,99.709 168.855 C 99.888 168.855,100.471 168.237,101.004 167.481 L 101.972 166.107 105.152 166.107 C 108.199 166.107,108.363 166.141,109.052 166.908 M168.169 166.794 C 168.517 167.172,169.517 168.192,170.392 169.061 L 171.983 170.640 171.857 173.524 L 171.731 176.408 170.369 177.790 C 169.620 178.550,168.719 179.557,168.365 180.027 L 167.723 180.881 163.132 180.893 L 158.541 180.904 157.057 179.384 C 156.240 178.547,155.263 177.623,154.885 177.331 C 153.743 176.448,153.846 170.671,155.022 169.693 C 155.888 168.972,156.628 168.235,157.818 166.908 C 158.865 165.742,167.117 165.651,168.169 166.794 M198.015 166.933 C 198.761 167.908,199.949 169.123,200.892 169.874 C 201.559 170.406,201.589 170.593,201.473 173.482 L 201.351 176.528 199.988 177.852 C 199.239 178.581,198.336 179.560,197.983 180.030 L 197.339 180.884 192.668 180.884 L 187.998 180.884 187.144 179.831 C 186.163 178.621,186.135 178.593,184.809 177.533 L 183.817 176.740 183.817 173.538 C 183.817 170.452,183.846 170.311,184.620 169.672 C 185.061 169.306,185.714 168.716,186.070 168.360 C 186.426 168.004,187.016 167.351,187.381 166.910 L 188.045 166.107 192.725 166.121 C 197.404 166.135,197.405 166.135,198.015 166.933 M227.696 166.921 C 227.997 167.369,228.910 168.408,229.723 169.230 L 231.203 170.724 231.098 173.616 L 230.992 176.508 229.618 177.842 C 228.863 178.576,227.960 179.554,227.612 180.016 L 226.980 180.857 222.312 180.886 L 217.643 180.916 216.776 179.847 C 216.300 179.260,215.776 178.664,215.613 178.525 C 213.357 176.594,213.435 176.778,213.435 173.435 C 213.435 170.460,213.467 170.309,214.238 169.672 C 214.679 169.306,215.332 168.716,215.688 168.360 C 216.044 168.004,216.635 167.351,217.000 166.910 L 217.664 166.107 222.405 166.107 L 227.147 166.107 227.696 166.921 M343.511 174.516 C 341.891 175.199,341.177 175.713,340.107 176.967 C 339.830 177.292,339.268 177.837,338.858 178.178 C 337.124 179.621,337.525 186.077,339.401 186.931 C 341.165 187.735,341.439 191.298,339.818 192.348 C 338.955 192.908,338.077 193.811,337.314 194.925 C 336.779 195.706,336.684 195.725,333.455 195.725 L 330.145 195.725 328.751 197.099 C 327.634 198.201,327.145 198.473,326.288 198.473 C 324.098 198.473,323.447 199.125,322.778 201.985 C 322.514 203.112,322.125 203.771,321.292 204.502 L 320.163 205.493 320.225 213.217 L 320.287 220.942 319.521 221.768 C 319.099 222.223,318.588 222.597,318.385 222.599 C 318.181 222.601,317.705 223.081,317.327 223.666 C 316.948 224.251,316.158 225.039,315.572 225.418 C 314.986 225.797,314.424 226.361,314.322 226.671 C 314.104 227.340,313.100 228.397,312.684 228.397 C 310.980 228.397,310.160 244.387,311.807 245.505 C 314.135 247.085,314.315 247.398,313.881 249.093 C 313.174 251.851,317.159 256.665,322.245 259.197 L 324.779 260.458 329.038 260.458 L 333.296 260.458 334.433 259.521 C 335.662 258.508,336.997 258.015,338.516 258.015 C 339.464 258.015,339.977 257.627,341.337 255.878 L 341.931 255.115 355.622 255.075 C 370.616 255.032,370.017 255.100,372.672 253.143 C 373.365 252.632,374.487 252.153,375.267 252.036 C 376.977 251.778,377.924 251.306,379.314 250.016 C 379.911 249.462,380.762 248.733,381.203 248.397 C 381.818 247.928,382.046 247.429,382.182 246.250 C 382.371 244.615,382.846 243.841,384.198 242.970 L 385.038 242.429 385.038 236.981 C 385.038 231.228,384.950 230.843,383.316 229.466 C 383.117 229.298,382.675 228.690,382.334 228.115 C 381.709 227.063,380.086 225.106,377.909 222.781 C 377.263 222.091,376.547 221.166,376.317 220.724 C 375.824 219.774,375.580 219.663,373.383 219.389 C 370.896 219.078,367.634 216.039,367.634 214.033 C 367.634 211.685,368.322 209.063,369.112 208.397 C 373.202 204.952,373.435 204.513,373.435 200.238 C 373.435 197.124,372.801 195.420,371.642 195.420 C 371.508 195.420,370.926 194.946,370.348 194.368 C 368.897 192.918,367.376 192.580,361.692 192.449 C 356.245 192.323,356.140 192.283,355.865 190.280 C 355.532 187.856,355.157 186.749,354.387 185.923 C 353.688 185.172,353.080 182.920,352.562 179.157 C 352.284 177.137,350.009 174.962,348.176 174.962 C 347.873 174.962,347.112 174.687,346.485 174.351 C 345.858 174.015,345.311 173.756,345.268 173.775 C 345.226 173.793,344.435 174.127,343.511 174.516 M79.366 190.558 C 79.883 191.075,80.305 191.598,80.305 191.720 C 80.305 191.843,80.928 192.383,81.689 192.919 L 83.073 193.895 82.987 197.318 L 82.901 200.741 81.603 201.612 C 80.889 202.091,80.305 202.622,80.305 202.792 C 80.305 202.962,79.904 203.502,79.413 203.993 C 77.726 205.680,71.145 205.041,71.145 203.190 C 71.145 202.832,69.873 201.527,69.525 201.527 C 67.861 201.527,67.420 194.474,69.008 193.249 C 70.419 192.159,70.990 191.607,71.469 190.868 C 72.454 189.348,77.941 189.133,79.366 190.558 M109.110 190.532 C 109.557 191.034,109.924 191.580,109.924 191.744 C 109.924 191.908,110.477 192.356,111.153 192.739 C 112.643 193.583,112.721 193.849,112.608 197.696 L 112.519 200.736 111.353 201.527 C 110.712 201.962,109.909 202.756,109.570 203.292 C 108.762 204.569,107.143 205.011,104.270 204.742 C 101.786 204.509,101.775 204.504,100.761 202.977 C 100.342 202.347,99.732 201.745,99.404 201.639 C 98.139 201.230,97.917 200.655,97.772 197.400 C 97.617 193.915,97.551 194.068,100.101 192.064 C 100.633 191.646,101.069 191.139,101.069 190.937 C 101.069 190.348,101.710 190.091,103.664 189.895 C 107.747 189.486,108.228 189.542,109.110 190.532 M165.765 189.882 C 167.646 190.070,168.114 190.231,168.597 190.855 C 168.916 191.266,169.414 191.906,169.703 192.276 C 169.992 192.646,170.398 192.955,170.604 192.963 C 171.583 193.000,171.984 194.441,171.852 197.449 L 171.724 200.390 170.289 201.601 C 169.500 202.267,168.855 202.953,168.855 203.126 C 168.855 204.373,167.607 204.656,163.053 204.442 L 158.626 204.234 157.433 203.033 C 156.777 202.373,156.131 201.832,155.997 201.832 C 154.796 201.832,154.198 200.259,154.198 197.095 L 154.198 193.912 155.561 192.910 C 156.310 192.359,156.928 191.783,156.935 191.630 C 157.009 189.897,160.000 189.305,165.765 189.882 M198.043 190.704 C 198.742 191.590,199.909 192.788,201.031 193.773 C 201.541 194.220,201.588 194.616,201.458 197.313 L 201.312 200.349 199.893 201.582 C 199.112 202.261,198.473 202.956,198.473 203.128 C 198.473 204.412,195.296 205.065,190.773 204.711 C 187.940 204.489,186.885 203.929,186.393 202.382 C 186.303 202.097,185.985 201.786,185.687 201.692 C 184.114 201.192,183.817 200.462,183.817 197.089 L 183.817 193.897 185.101 192.966 C 185.808 192.455,186.598 191.723,186.857 191.340 C 188.082 189.529,187.882 189.585,192.789 189.699 L 197.334 189.805 198.043 190.704 M227.387 190.215 C 227.755 190.460,228.131 190.957,228.223 191.320 C 228.314 191.683,229.021 192.499,229.794 193.132 L 231.200 194.284 231.096 197.324 L 230.992 200.364 229.542 201.588 C 228.744 202.261,228.092 202.953,228.092 203.126 C 228.092 205.065,218.495 205.595,216.967 203.741 C 215.984 202.548,215.143 201.731,214.253 201.102 C 213.453 200.538,213.435 200.454,213.440 197.285 C 213.445 193.670,213.443 193.677,215.038 192.707 C 215.668 192.324,216.183 191.852,216.183 191.658 C 216.183 189.914,225.186 188.755,227.387 190.215 M276.260 207.560 C 275.798 207.846,275.420 208.169,275.420 208.276 C 275.420 208.551,277.535 207.532,277.547 207.252 C 277.563 206.899,277.177 206.991,276.260 207.560 M276.544 208.563 C 276.239 208.858,276.115 209.177,276.270 209.272 C 276.686 209.530,277.582 208.757,277.323 208.365 C 277.170 208.134,276.924 208.197,276.544 208.563 M79.438 211.353 C 79.915 211.887,80.305 212.410,80.305 212.515 C 80.305 212.621,80.928 213.146,81.689 213.682 L 83.073 214.658 82.987 218.078 L 82.901 221.499 81.758 222.276 C 81.130 222.704,80.266 223.569,79.839 224.198 L 79.062 225.344 75.711 225.344 C 72.628 225.344,72.318 225.290,71.829 224.674 C 71.286 223.990,70.274 222.986,68.877 221.745 C 67.424 220.454,67.871 213.740,69.410 213.740 C 69.749 213.740,70.534 212.914,71.550 211.487 C 72.568 210.057,78.196 209.961,79.438 211.353 M109.031 211.274 C 109.522 211.765,109.924 212.311,109.924 212.486 C 109.924 212.662,110.477 213.119,111.153 213.502 C 112.643 214.346,112.721 214.612,112.608 218.463 L 112.519 221.505 111.221 222.376 C 110.508 222.855,109.924 223.393,109.924 223.573 C 109.924 224.776,108.408 225.344,105.197 225.344 C 101.783 225.344,101.602 225.271,100.555 223.500 C 100.261 223.002,99.748 222.508,99.414 222.402 C 97.314 221.736,96.897 213.740,98.962 213.740 C 99.363 213.740,101.069 212.060,101.069 211.664 C 101.069 210.111,107.551 209.794,109.031 211.274 M166.235 210.658 C 167.646 210.834,168.149 211.041,168.526 211.602 C 168.791 211.997,169.626 212.918,170.382 213.648 L 171.756 214.977 171.752 217.871 L 171.747 220.765 170.454 222.021 C 169.742 222.711,169.160 223.392,169.160 223.533 C 169.160 225.503,159.338 226.368,157.784 224.535 C 156.795 223.368,155.915 222.524,155.000 221.866 C 154.220 221.304,154.198 221.200,154.198 217.998 L 154.198 214.708 155.496 213.698 C 156.210 213.143,156.888 212.547,157.002 212.375 C 157.780 211.203,158.202 210.887,159.262 210.682 C 160.810 210.384,163.946 210.373,166.235 210.658 M227.697 211.525 C 228.371 212.366,229.569 213.588,230.650 214.537 C 231.159 214.984,231.207 215.379,231.077 218.077 L 230.930 221.113 229.587 222.392 C 228.849 223.095,227.985 224.047,227.667 224.507 L 227.090 225.344 222.398 225.344 L 217.706 225.344 217.021 224.520 C 216.342 223.705,215.723 223.092,214.216 221.745 C 213.474 221.082,213.435 220.891,213.440 217.928 C 213.445 214.441,213.446 214.438,215.038 213.470 C 215.668 213.088,216.183 212.643,216.183 212.481 C 216.183 210.305,226.062 209.484,227.697 211.525 M197.894 211.080 C 198.164 211.285,198.479 211.749,198.594 212.112 C 198.709 212.474,199.433 213.287,200.203 213.918 L 201.603 215.066 201.458 217.991 L 201.312 220.916 199.969 222.314 C 199.230 223.083,198.379 224.079,198.077 224.528 L 197.529 225.344 192.808 225.344 L 188.088 225.344 187.403 224.520 C 186.422 223.342,185.573 222.527,184.635 221.866 C 183.835 221.301,183.817 221.217,183.821 218.049 C 183.827 214.435,183.825 214.440,185.414 213.474 C 186.041 213.093,186.838 212.383,187.184 211.896 C 187.810 211.018,187.839 211.011,191.388 210.915 C 193.354 210.862,195.511 210.793,196.183 210.762 C 196.855 210.732,197.625 210.874,197.894 211.080 M290.996 218.316 C 290.466 218.985,289.136 220.463,288.041 221.599 C 286.945 222.735,285.547 224.282,284.933 225.038 C 284.319 225.794,283.198 227.052,282.443 227.833 C 279.738 230.631,278.779 231.743,278.779 232.083 C 278.779 232.272,278.092 233.100,277.252 233.922 C 275.500 235.637,275.482 235.696,276.432 236.588 C 277.129 237.243,277.280 237.252,287.592 237.252 L 298.044 237.252 298.793 236.444 C 299.205 236.000,299.542 235.469,299.542 235.266 C 299.542 235.062,300.079 234.438,300.735 233.879 C 301.770 232.998,301.956 232.641,302.138 231.186 C 302.320 229.730,302.526 229.334,303.693 228.200 C 305.305 226.634,305.283 226.868,303.948 225.453 C 303.349 224.817,302.632 223.914,302.355 223.446 C 302.079 222.978,301.602 222.515,301.295 222.418 C 300.989 222.321,300.229 221.737,299.606 221.120 C 298.983 220.504,298.077 219.795,297.593 219.545 C 297.109 219.295,296.372 218.642,295.954 218.095 C 294.742 216.505,292.346 216.612,290.996 218.316 M79.684 235.222 C 79.930 235.583,80.788 236.497,81.592 237.253 L 83.053 238.628 83.053 241.703 C 83.053 244.244,82.961 244.863,82.519 245.264 C 81.165 246.493,80.107 247.615,79.604 248.354 C 79.068 249.142,78.981 249.160,75.738 249.160 L 72.421 249.160 71.626 248.168 C 70.438 246.686,70.386 246.633,69.195 245.712 L 68.092 244.859 68.092 241.860 C 68.092 238.802,68.641 237.252,69.726 237.252 C 69.928 237.252,70.296 236.948,70.543 236.577 C 70.790 236.206,71.369 235.509,71.829 235.030 L 72.666 234.157 75.951 234.362 C 78.844 234.541,79.290 234.644,79.684 235.222 M108.738 234.580 C 108.989 234.790,109.572 235.477,110.033 236.107 C 110.494 236.737,111.000 237.252,111.157 237.252 C 111.315 237.252,111.720 237.489,112.058 237.778 C 113.371 238.902,112.766 246.098,111.357 246.110 C 111.004 246.113,110.593 246.551,109.281 248.321 C 108.670 249.144,108.596 249.160,105.437 249.160 L 102.217 249.160 99.963 246.863 L 97.710 244.565 97.710 241.632 L 97.710 238.698 98.855 237.665 C 100.311 236.352,100.293 236.370,101.345 235.191 L 102.230 234.198 105.255 234.198 C 107.228 234.198,108.439 234.331,108.738 234.580 M261.439 252.519 C 260.886 253.113,260.866 253.782,260.957 268.325 C 261.010 276.678,261.056 284.223,261.061 285.093 C 261.074 287.794,260.159 287.634,275.553 287.634 C 292.095 287.634,290.655 288.087,290.664 282.879 C 290.672 277.642,291.623 276.239,295.142 276.271 C 298.537 276.301,299.237 277.505,299.237 283.316 C 299.237 288.044,297.838 287.634,313.981 287.629 C 324.241 287.626,327.664 287.532,328.244 287.239 L 329.008 286.853 329.166 279.534 C 329.252 275.508,329.420 272.008,329.539 271.756 C 330.084 270.597,328.387 270.087,323.359 269.900 L 318.626 269.723 317.780 270.663 C 316.096 272.534,315.792 272.834,315.002 273.402 C 314.560 273.719,314.198 274.096,314.198 274.239 C 314.198 276.159,307.458 276.960,305.910 275.224 C 305.171 274.396,303.771 272.993,302.824 272.134 C 302.378 271.729,302.290 271.103,302.290 268.345 L 302.290 265.042 303.588 264.103 C 305.619 262.635,306.100 259.817,304.541 258.527 C 302.531 256.862,302.290 256.465,302.290 254.812 C 302.290 251.955,303.901 252.172,281.562 252.027 C 262.233 251.901,262.010 251.907,261.439 252.519 M184.415 255.650 C 183.810 256.213,183.798 256.541,183.831 271.288 L 183.865 286.351 184.574 287.017 C 185.619 287.999,199.599 287.871,200.587 286.870 C 201.359 286.089,201.664 256.035,200.905 255.566 C 199.537 254.720,185.335 254.792,184.415 255.650 M79.489 258.818 C 80.332 259.837,81.231 260.737,82.251 261.580 C 83.025 262.220,83.053 262.358,83.053 265.476 L 83.053 268.708 81.864 269.545 C 81.209 270.005,80.358 270.888,79.972 271.507 C 79.128 272.859,78.783 272.968,75.320 272.973 C 72.691 272.977,72.604 272.954,71.765 272.029 C 70.338 270.456,70.116 270.233,69.084 269.327 L 68.092 268.457 68.092 265.395 C 68.092 262.099,68.171 261.903,69.935 260.861 C 70.433 260.567,70.911 260.105,70.996 259.835 C 71.648 257.782,78.003 257.021,79.489 258.818 M109.264 258.974 C 109.711 259.502,110.341 260.155,110.664 260.425 C 112.715 262.139,112.672 262.032,112.667 265.406 C 112.662 268.882,112.636 268.961,111.221 269.784 C 110.675 270.101,110.161 270.572,110.079 270.829 C 109.370 273.060,102.629 273.858,101.222 271.878 C 100.603 271.006,99.962 270.378,98.689 269.396 C 98.061 268.911,97.969 268.518,97.805 265.609 L 97.622 262.362 98.498 261.639 C 99.431 260.869,100.965 259.330,101.615 258.511 C 101.934 258.110,102.623 258.015,105.230 258.015 L 108.452 258.015 109.264 258.974 M283.893 261.647 C 284.187 261.966,284.708 262.550,285.051 262.945 C 285.394 263.341,286.078 263.974,286.570 264.353 C 287.939 265.406,288.162 270.951,286.881 272.094 C 285.427 273.391,284.440 274.371,283.896 275.056 C 283.013 276.168,277.182 276.066,276.236 274.922 C 275.260 273.742,274.375 272.895,273.472 272.276 C 272.690 271.740,272.672 271.649,272.672 268.376 L 272.672 265.026 274.046 264.057 C 274.802 263.524,275.420 262.959,275.420 262.801 C 275.420 261.138,282.529 260.171,283.893 261.647 " stroke="none" fill="#fbfbfb" fill-rule="evenodd"></path><path id="path1" d="M185.547 4.784 C 185.435 4.896,185.344 5.583,185.344 6.310 L 185.344 7.634 183.817 7.634 L 182.290 7.634 182.290 25.341 L 182.290 43.048 167.557 43.127 L 152.824 43.206 152.731 44.656 L 152.638 46.107 151.281 46.107 L 149.924 46.107 149.924 54.962 L 149.924 63.817 139.749 63.817 C 126.392 63.817,126.618 63.750,126.166 67.853 L 125.954 69.771 124.504 69.864 L 123.053 69.957 123.053 105.513 L 123.053 141.069 84.580 141.069 L 46.107 141.069 46.107 142.443 L 46.107 143.817 44.580 143.817 C 43.508 143.817,43.053 143.939,43.053 144.226 C 43.053 144.451,42.708 144.792,42.286 144.985 C 41.863 145.177,41.360 145.680,41.168 146.102 C 40.975 146.525,40.703 146.870,40.562 146.870 C 40.421 146.870,40.305 178.267,40.305 216.641 L 40.305 286.412 26.870 286.412 L 13.435 286.412 13.435 287.786 L 13.435 289.160 12.061 289.160 L 10.687 289.160 10.687 294.962 L 10.687 300.763 12.026 300.763 L 13.366 300.763 13.568 302.110 C 13.685 302.893,13.966 303.533,14.238 303.637 C 15.512 304.126,368.855 303.823,368.855 303.332 C 368.855 301.952,370.726 300.763,372.898 300.763 L 374.975 300.763 374.892 295.038 L 374.809 289.313 373.359 289.220 L 371.908 289.127 371.908 287.770 L 371.908 286.412 364.444 286.412 L 356.980 286.412 356.887 284.962 L 356.794 283.511 355.496 283.418 L 354.198 283.324 354.198 274.334 L 354.198 265.344 355.693 265.344 C 357.241 265.344,357.557 265.609,357.557 266.911 C 357.557 268.153,359.102 268.397,366.952 268.397 C 374.975 268.397,374.962 268.400,374.962 266.515 L 374.962 265.366 377.786 265.279 L 380.611 265.191 380.704 263.740 L 380.797 262.290 383.681 262.290 L 386.565 262.290 386.565 260.933 L 386.565 259.575 388.015 259.482 L 389.466 259.389 389.558 257.955 L 389.650 256.521 391.085 256.428 L 392.519 256.336 392.606 253.359 L 392.694 250.382 394.057 250.382 L 395.420 250.382 395.420 247.481 L 395.420 244.580 396.356 244.580 C 398.509 244.580,398.473 244.707,398.473 237.124 C 398.473 229.518,398.601 229.940,396.297 229.928 L 395.495 229.924 395.366 226.299 C 395.227 222.401,395.030 221.900,393.487 221.512 C 392.787 221.337,392.692 221.144,392.610 219.742 L 392.519 218.168 391.085 218.076 L 389.650 217.983 389.558 216.549 L 389.466 215.115 388.015 215.021 L 386.565 214.928 386.565 213.588 L 386.565 212.247 385.115 212.133 L 383.664 212.018 385.115 211.963 L 386.565 211.908 386.565 201.679 L 386.565 191.450 385.208 191.450 L 383.850 191.450 383.757 190.000 L 383.664 188.550 382.214 188.457 L 380.763 188.363 380.763 186.994 C 380.763 184.087,379.172 182.595,376.071 182.595 C 374.982 182.595,374.962 182.573,374.962 181.385 C 374.962 179.708,374.495 179.542,369.791 179.542 L 365.802 179.542 365.802 176.641 L 365.802 173.740 364.439 173.740 L 363.076 173.740 362.988 170.763 L 362.901 167.786 361.466 167.694 L 360.032 167.601 359.940 166.167 L 359.847 164.733 358.397 164.640 C 357.035 164.552,356.947 164.494,356.947 163.695 C 356.947 161.831,356.954 161.832,344.632 161.832 L 333.435 161.832 333.435 163.506 C 333.435 164.988,333.356 165.199,332.747 165.352 C 331.744 165.604,330.687 167.629,330.687 169.297 L 330.687 170.687 329.160 170.687 L 327.634 170.687 327.634 172.197 L 327.634 173.707 326.183 173.800 L 324.733 173.893 324.650 179.602 L 324.567 185.311 323.123 185.403 L 321.679 185.496 321.588 186.916 L 321.496 188.336 318.941 188.443 C 316.005 188.566,316.034 188.549,315.812 190.204 L 315.645 191.450 314.158 191.450 L 312.672 191.450 312.672 193.063 C 312.672 194.576,312.615 194.697,311.750 195.023 C 310.234 195.595,309.924 196.834,309.924 202.318 L 309.924 207.099 308.969 206.908 C 308.445 206.803,307.720 206.718,307.360 206.718 C 306.921 206.718,306.510 206.357,306.119 205.633 C 305.798 205.036,305.148 204.319,304.676 204.040 C 304.145 203.726,303.817 203.274,303.817 202.855 C 303.817 201.304,303.300 200.662,301.880 200.449 C 300.697 200.272,300.500 200.133,300.348 199.373 C 300.110 198.185,298.991 197.532,296.856 197.339 L 295.063 197.176 294.784 195.916 L 294.504 194.656 292.529 194.564 C 289.551 194.424,289.160 194.590,289.160 195.996 C 289.160 197.140,289.127 197.176,287.914 197.339 C 286.364 197.547,286.374 197.536,286.184 199.222 C 286.049 200.420,285.931 200.611,285.329 200.611 C 284.087 200.611,283.665 200.958,283.476 202.135 C 283.305 203.210,283.209 203.298,282.060 203.453 C 280.706 203.634,280.317 204.026,280.310 205.216 C 280.306 205.942,280.124 206.050,278.025 206.572 C 275.928 207.095,274.198 208.121,274.198 208.843 C 274.198 208.991,273.752 209.205,273.206 209.319 C 270.964 209.787,269.264 210.500,268.710 211.205 C 268.386 211.617,267.565 212.357,266.885 212.849 C 266.205 213.341,265.649 213.938,265.649 214.175 C 265.649 214.413,265.174 214.900,264.593 215.259 C 264.013 215.618,263.262 216.282,262.924 216.734 L 262.309 217.557 262.300 143.757 L 262.290 69.957 260.840 69.864 L 259.389 69.771 259.175 67.832 C 258.922 65.538,258.299 64.427,257.263 64.427 C 256.857 64.427,256.440 64.290,256.336 64.122 C 256.216 63.928,252.363 63.817,245.784 63.817 L 235.420 63.817 235.420 56.489 L 235.420 49.160 234.063 49.160 L 232.705 49.160 232.612 47.710 L 232.519 46.260 231.085 46.167 L 229.650 46.075 229.558 44.640 L 229.466 43.206 214.733 43.127 L 200.000 43.048 200.000 25.341 L 200.000 7.634 198.473 7.634 L 196.947 7.634 196.947 6.107 L 196.947 4.580 191.349 4.580 C 188.270 4.580,185.659 4.672,185.547 4.784 M217.722 60.006 C 218.582 60.451,218.626 60.570,218.626 62.439 L 218.626 64.404 217.044 64.874 C 214.651 65.584,167.900 65.582,166.475 64.871 C 164.901 64.086,164.776 61.000,166.278 60.016 C 167.579 59.164,216.076 59.155,217.722 60.006 M245.496 80.852 C 245.901 81.342,245.949 93.041,245.911 182.459 C 245.862 298.891,245.931 286.544,245.322 287.154 C 244.474 288.002,218.087 287.865,216.996 287.007 L 216.199 286.381 216.115 265.557 L 216.031 244.733 214.809 243.460 C 214.137 242.760,213.292 241.799,212.931 241.323 C 212.059 240.175,210.210 240.082,189.574 240.145 C 172.330 240.197,172.599 240.169,171.909 241.984 C 171.756 242.386,171.109 243.192,170.472 243.776 L 169.313 244.838 169.230 265.608 L 169.148 286.378 168.350 287.006 C 167.571 287.618,167.213 287.634,154.058 287.634 L 140.564 287.634 139.900 286.927 L 139.236 286.220 139.241 183.914 C 139.246 84.876,139.264 81.588,139.810 80.959 L 140.374 80.309 167.210 80.231 C 224.279 80.065,244.982 80.229,245.496 80.852 M159.422 97.984 C 158.663 98.118,157.898 98.475,157.660 98.805 C 156.912 99.846,156.481 100.290,155.329 101.200 L 154.198 102.095 154.198 105.235 C 154.198 108.212,154.239 108.412,154.974 109.073 C 155.698 109.724,156.735 110.781,157.895 112.048 C 159.330 113.616,168.855 112.985,168.855 111.322 C 168.855 111.092,169.502 110.357,170.293 109.689 L 171.731 108.476 171.854 105.409 C 171.970 102.536,171.935 102.308,171.299 101.782 C 169.901 100.626,168.855 99.482,168.855 99.109 C 168.855 98.155,162.652 97.415,159.422 97.984 M189.573 97.968 C 187.892 98.165,186.565 98.922,186.565 99.683 C 186.565 99.877,185.947 100.471,185.191 101.004 L 183.817 101.972 183.817 105.174 C 183.817 108.222,183.854 108.409,184.597 109.073 C 186.431 110.712,186.742 111.030,187.195 111.729 C 188.108 113.138,196.703 113.353,197.826 111.995 C 198.098 111.665,198.995 110.712,199.818 109.876 L 201.316 108.357 201.461 105.354 C 201.597 102.518,201.567 102.320,200.915 101.786 C 200.074 101.098,198.980 99.973,198.079 98.870 C 197.329 97.953,193.324 97.529,189.573 97.968 M219.084 97.889 C 218.748 97.971,218.178 98.101,217.818 98.178 C 217.457 98.254,216.906 98.721,216.593 99.215 C 216.280 99.709,215.442 100.535,214.730 101.051 L 213.435 101.989 213.435 105.303 C 213.435 108.549,213.452 108.628,214.253 109.194 C 215.149 109.826,215.978 110.634,217.000 111.869 C 217.630 112.630,217.818 112.674,220.664 112.710 C 226.454 112.783,226.958 112.721,227.634 111.853 C 227.969 111.421,228.847 110.478,229.583 109.758 L 230.922 108.449 231.077 105.487 L 231.232 102.524 229.738 101.071 C 228.917 100.272,227.969 99.259,227.634 98.820 C 227.025 98.023,221.142 97.383,219.084 97.889 M187.365 122.279 C 186.936 122.742,186.502 123.381,186.401 123.698 C 186.301 124.015,186.101 124.275,185.957 124.275 C 184.541 124.275,183.817 125.848,183.817 128.926 L 183.817 131.997 186.063 134.243 L 188.308 136.489 192.780 136.489 C 197.338 136.489,198.473 136.186,198.473 134.972 C 198.473 134.810,199.098 134.080,199.860 133.349 C 202.079 131.223,202.272 126.366,200.194 124.952 C 199.630 124.568,198.915 123.782,198.603 123.204 C 197.860 121.823,197.826 121.814,192.623 121.611 L 188.146 121.436 187.365 122.279 M219.011 121.733 C 217.589 121.849,217.318 121.989,216.568 122.993 C 216.105 123.614,215.617 124.170,215.485 124.228 C 212.636 125.479,212.551 133.740,215.387 133.740 C 215.559 133.740,216.137 134.247,216.672 134.867 L 217.645 135.993 222.181 136.187 L 226.718 136.382 227.564 135.443 C 228.030 134.926,228.991 133.917,229.701 133.200 L 230.992 131.896 230.992 128.925 L 230.992 125.954 229.542 124.618 C 228.744 123.882,228.092 123.109,228.092 122.899 C 228.092 121.929,223.619 121.355,219.011 121.733 M157.631 122.503 C 157.338 122.872,156.447 123.821,155.649 124.613 L 154.198 126.052 154.198 129.024 L 154.198 131.997 156.444 134.243 L 158.690 136.489 163.085 136.478 C 167.516 136.468,168.855 136.133,168.855 135.034 C 168.855 134.707,170.252 133.130,170.542 133.130 C 171.300 133.130,171.673 131.986,171.828 129.184 L 171.994 126.170 171.025 125.222 C 170.491 124.701,169.948 124.275,169.817 124.275 C 169.685 124.275,169.269 123.725,168.892 123.053 L 168.205 121.832 163.184 121.832 C 158.377 121.832,158.139 121.861,157.631 122.503 M159.179 142.565 C 158.121 142.717,157.739 142.972,156.964 144.046 C 156.448 144.760,155.916 145.344,155.781 145.344 C 154.152 145.344,153.348 152.261,154.833 153.511 C 155.181 153.805,156.177 154.768,157.046 155.651 L 158.626 157.257 163.053 157.244 C 167.581 157.231,168.855 156.901,168.855 155.738 C 168.855 155.547,169.501 154.780,170.291 154.034 L 171.727 152.677 171.853 149.807 L 171.978 146.936 170.470 145.453 C 169.641 144.637,168.815 143.703,168.635 143.378 C 168.141 142.482,162.902 142.032,159.179 142.565 M217.783 142.485 C 217.392 142.572,216.796 143.159,216.409 143.839 C 216.033 144.499,215.509 145.109,215.245 145.195 C 213.747 145.680,213.435 146.450,213.435 149.657 L 213.435 152.726 215.683 154.989 L 217.932 157.252 222.325 157.242 C 226.786 157.231,228.092 156.898,228.092 155.766 C 228.092 155.433,229.060 154.428,230.271 153.504 C 231.695 152.419,231.474 146.838,229.968 145.829 C 229.489 145.508,228.737 144.649,228.296 143.921 C 227.515 142.626,227.458 142.595,225.885 142.594 C 225.000 142.593,222.969 142.534,221.374 142.462 C 219.779 142.391,218.163 142.401,217.783 142.485 M187.191 143.260 C 186.850 143.625,186.495 144.168,186.400 144.466 C 186.306 144.763,185.985 145.084,185.687 145.179 C 183.717 145.804,182.787 152.123,184.461 153.511 C 184.815 153.805,185.822 154.767,186.699 155.649 L 188.293 157.252 192.696 157.242 C 197.169 157.231,198.473 156.898,198.473 155.766 C 198.473 155.434,199.442 154.427,200.648 153.509 C 202.300 152.250,201.635 145.344,199.862 145.344 C 199.642 145.344,198.956 144.725,198.337 143.969 L 197.211 142.595 192.511 142.595 C 188.076 142.595,187.775 142.633,187.191 143.260 M123.958 157.920 C 124.942 158.977,124.942 285.908,123.958 286.965 L 123.335 287.634 90.522 287.634 C 58.117 287.634,57.702 287.626,57.099 287.023 C 56.521 286.444,56.487 285.989,56.467 278.397 C 56.158 165.754,56.197 158.764,57.146 157.815 C 57.687 157.275,59.032 157.252,90.522 157.252 L 123.335 157.252 123.958 157.920 M71.630 167.046 C 71.195 167.563,70.836 168.078,70.831 168.191 C 70.827 168.304,70.278 168.733,69.611 169.144 C 68.079 170.090,67.978 170.444,68.241 173.952 C 68.430 176.469,68.550 176.916,69.201 177.500 C 70.025 178.241,70.494 178.720,71.765 180.120 C 73.332 181.848,78.827 181.440,80.021 179.507 C 80.425 178.855,80.849 178.321,80.965 178.321 C 83.064 178.321,84.120 171.218,82.251 169.672 C 81.231 168.828,80.332 167.929,79.489 166.910 C 78.390 165.581,72.781 165.679,71.630 167.046 M101.004 167.481 C 100.471 168.237,99.888 168.855,99.709 168.855 C 97.692 168.855,96.886 176.116,98.746 177.527 C 99.610 178.182,100.922 179.455,101.800 180.490 C 102.938 181.833,108.669 181.117,109.658 179.508 C 110.056 178.862,110.656 178.242,110.992 178.130 C 112.925 177.490,113.588 171.093,111.869 169.672 C 110.960 168.920,110.100 168.076,109.052 166.908 C 108.363 166.141,108.199 166.107,105.152 166.107 L 101.972 166.107 101.004 167.481 M157.818 166.908 C 156.628 168.235,155.888 168.972,155.022 169.693 C 153.846 170.671,153.743 176.448,154.885 177.331 C 155.263 177.623,156.240 178.547,157.057 179.384 L 158.541 180.904 163.132 180.893 L 167.723 180.881 168.365 180.027 C 168.719 179.557,169.620 178.550,170.369 177.790 L 171.731 176.408 171.857 173.524 L 171.983 170.640 170.392 169.061 C 169.517 168.192,168.517 167.172,168.169 166.794 C 167.117 165.651,158.865 165.742,157.818 166.908 M187.381 166.910 C 187.016 167.351,186.426 168.004,186.070 168.360 C 185.714 168.716,185.061 169.306,184.620 169.672 C 183.846 170.311,183.817 170.452,183.817 173.538 L 183.817 176.740 184.809 177.533 C 186.135 178.593,186.163 178.621,187.144 179.831 L 187.998 180.884 192.668 180.884 L 197.339 180.884 197.983 180.030 C 198.336 179.560,199.239 178.581,199.988 177.852 L 201.351 176.528 201.473 173.482 C 201.589 170.593,201.559 170.406,200.892 169.874 C 199.949 169.123,198.761 167.908,198.015 166.933 C 197.405 166.135,197.404 166.135,192.725 166.121 L 188.045 166.107 187.381 166.910 M217.000 166.910 C 216.635 167.351,216.044 168.004,215.688 168.360 C 215.332 168.716,214.679 169.306,214.238 169.672 C 213.467 170.309,213.435 170.460,213.435 173.435 C 213.435 176.778,213.357 176.594,215.613 178.525 C 215.776 178.664,216.300 179.260,216.776 179.847 L 217.643 180.916 222.312 180.886 L 226.980 180.857 227.612 180.016 C 227.960 179.554,228.863 178.576,229.618 177.842 L 230.992 176.508 231.098 173.616 L 231.203 170.724 229.723 169.230 C 228.910 168.408,227.997 167.369,227.696 166.921 L 227.147 166.107 222.405 166.107 L 217.664 166.107 217.000 166.910 M346.485 174.351 C 347.112 174.687,347.873 174.962,348.176 174.962 C 350.009 174.962,352.284 177.137,352.562 179.157 C 353.080 182.920,353.688 185.172,354.387 185.923 C 355.157 186.749,355.532 187.856,355.865 190.280 C 356.140 192.283,356.245 192.323,361.692 192.449 C 367.376 192.580,368.897 192.918,370.348 194.368 C 370.926 194.946,371.508 195.420,371.642 195.420 C 372.801 195.420,373.435 197.124,373.435 200.238 C 373.435 204.513,373.202 204.952,369.112 208.397 C 368.322 209.063,367.634 211.685,367.634 214.033 C 367.634 216.039,370.896 219.078,373.383 219.389 C 375.580 219.663,375.824 219.774,376.317 220.724 C 376.547 221.166,377.263 222.091,377.909 222.781 C 380.086 225.106,381.709 227.063,382.334 228.115 C 382.675 228.690,383.117 229.298,383.316 229.466 C 384.950 230.843,385.038 231.228,385.038 236.981 L 385.038 242.429 384.198 242.970 C 382.846 243.841,382.371 244.615,382.182 246.250 C 382.046 247.429,381.818 247.928,381.203 248.397 C 380.762 248.733,379.911 249.462,379.314 250.016 C 377.924 251.306,376.977 251.778,375.267 252.036 C 374.487 252.153,373.365 252.632,372.672 253.143 C 370.017 255.100,370.616 255.032,355.622 255.075 L 341.931 255.115 341.337 255.878 C 339.977 257.627,339.464 258.015,338.516 258.015 C 336.997 258.015,335.662 258.508,334.433 259.521 L 333.296 260.458 329.038 260.458 L 324.779 260.458 322.245 259.197 C 317.159 256.665,313.174 251.851,313.881 249.093 C 314.315 247.398,314.135 247.085,311.807 245.505 C 310.160 244.387,310.980 228.397,312.684 228.397 C 313.100 228.397,314.104 227.340,314.322 226.671 C 314.424 226.361,314.986 225.797,315.572 225.418 C 316.158 225.039,316.948 224.251,317.327 223.666 C 317.705 223.081,318.181 222.601,318.385 222.599 C 318.588 222.597,319.099 222.223,319.521 221.768 L 320.287 220.942 320.225 213.217 L 320.163 205.493 321.292 204.502 C 322.125 203.771,322.514 203.112,322.778 201.985 C 323.447 199.125,324.098 198.473,326.288 198.473 C 327.145 198.473,327.634 198.201,328.751 197.099 L 330.145 195.725 333.455 195.725 C 336.684 195.725,336.779 195.706,337.314 194.925 C 338.077 193.811,338.955 192.908,339.818 192.348 C 341.439 191.298,341.165 187.735,339.401 186.931 C 337.525 186.077,337.124 179.621,338.858 178.178 C 339.268 177.837,339.830 177.292,340.107 176.967 C 341.177 175.713,341.891 175.199,343.511 174.516 C 344.435 174.127,345.226 173.793,345.268 173.775 C 345.311 173.756,345.858 174.015,346.485 174.351 M73.301 189.914 C 72.355 190.067,71.801 190.355,71.469 190.868 C 70.990 191.607,70.419 192.159,69.008 193.249 C 67.420 194.474,67.861 201.527,69.525 201.527 C 69.873 201.527,71.145 202.832,71.145 203.190 C 71.145 205.041,77.726 205.680,79.413 203.993 C 79.904 203.502,80.305 202.962,80.305 202.792 C 80.305 202.622,80.889 202.091,81.603 201.612 L 82.901 200.741 82.987 197.318 L 83.073 193.895 81.689 192.919 C 80.928 192.383,80.305 191.843,80.305 191.720 C 80.305 190.066,77.244 189.277,73.301 189.914 M103.664 189.895 C 101.710 190.091,101.069 190.348,101.069 190.937 C 101.069 191.139,100.633 191.646,100.101 192.064 C 97.551 194.068,97.617 193.915,97.772 197.400 C 97.917 200.655,98.139 201.230,99.404 201.639 C 99.732 201.745,100.342 202.347,100.761 202.977 C 101.775 204.504,101.786 204.509,104.270 204.742 C 107.143 205.011,108.762 204.569,109.570 203.292 C 109.909 202.756,110.712 201.962,111.353 201.527 L 112.519 200.736 112.608 197.696 C 112.721 193.849,112.643 193.583,111.153 192.739 C 110.477 192.356,109.924 191.908,109.924 191.744 C 109.924 190.020,108.021 189.458,103.664 189.895 M157.918 190.485 C 157.384 190.962,156.941 191.477,156.935 191.630 C 156.928 191.783,156.310 192.359,155.561 192.910 L 154.198 193.912 154.198 197.095 C 154.198 200.259,154.796 201.832,155.997 201.832 C 156.131 201.832,156.777 202.373,157.433 203.033 L 158.626 204.234 163.053 204.442 C 167.607 204.656,168.855 204.373,168.855 203.126 C 168.855 202.953,169.500 202.267,170.289 201.601 L 171.724 200.390 171.852 197.449 C 171.984 194.441,171.583 193.000,170.604 192.963 C 170.398 192.955,169.992 192.646,169.703 192.276 C 169.414 191.906,168.916 191.266,168.597 190.855 C 167.454 189.380,159.466 189.103,157.918 190.485 M187.786 190.118 C 187.534 190.407,187.116 190.957,186.857 191.340 C 186.598 191.723,185.808 192.455,185.101 192.966 L 183.817 193.897 183.817 197.089 C 183.817 200.462,184.114 201.192,185.687 201.692 C 185.985 201.786,186.303 202.097,186.393 202.382 C 186.885 203.929,187.940 204.489,190.773 204.711 C 195.296 205.065,198.473 204.412,198.473 203.128 C 198.473 202.956,199.112 202.261,199.893 201.582 L 201.312 200.349 201.458 197.313 C 201.588 194.616,201.541 194.220,201.031 193.773 C 199.909 192.788,198.742 191.590,198.043 190.704 L 197.334 189.805 192.789 189.699 C 188.789 189.606,188.189 189.656,187.786 190.118 M216.996 190.538 C 216.549 190.959,216.183 191.463,216.183 191.658 C 216.183 191.852,215.668 192.324,215.038 192.707 C 213.443 193.677,213.445 193.670,213.440 197.285 C 213.435 200.454,213.453 200.538,214.253 201.102 C 215.143 201.731,215.984 202.548,216.967 203.741 C 218.495 205.595,228.092 205.065,228.092 203.126 C 228.092 202.953,228.744 202.261,229.542 201.588 L 230.992 200.364 231.096 197.324 L 231.200 194.284 229.794 193.132 C 229.021 192.499,228.314 191.683,228.223 191.320 C 227.770 189.516,218.746 188.887,216.996 190.538 M277.547 207.252 C 277.535 207.532,275.420 208.551,275.420 208.276 C 275.420 208.057,276.972 207.044,277.328 207.031 C 277.454 207.027,277.553 207.126,277.547 207.252 M277.049 209.074 C 276.319 209.620,275.894 209.190,276.544 208.563 C 276.924 208.197,277.170 208.134,277.323 208.365 C 277.445 208.551,277.322 208.870,277.049 209.074 M73.155 210.682 C 72.497 210.809,71.774 211.171,71.550 211.487 C 70.534 212.914,69.749 213.740,69.410 213.740 C 67.871 213.740,67.424 220.454,68.877 221.745 C 70.274 222.986,71.286 223.990,71.829 224.674 C 72.318 225.290,72.628 225.344,75.711 225.344 L 79.062 225.344 79.839 224.198 C 80.266 223.569,81.130 222.704,81.758 222.276 L 82.901 221.499 82.987 218.078 L 83.073 214.658 81.689 213.682 C 80.928 213.146,80.305 212.621,80.305 212.515 C 80.305 210.798,76.980 209.946,73.155 210.682 M101.756 210.893 C 101.378 211.157,101.069 211.503,101.069 211.664 C 101.069 212.060,99.363 213.740,98.962 213.740 C 98.052 213.740,97.652 215.239,97.757 218.257 C 97.867 221.390,98.105 221.987,99.414 222.402 C 99.748 222.508,100.261 223.002,100.555 223.500 C 101.602 225.271,101.783 225.344,105.197 225.344 C 108.408 225.344,109.924 224.776,109.924 223.573 C 109.924 223.393,110.508 222.855,111.221 222.376 L 112.519 221.505 112.608 218.463 C 112.721 214.612,112.643 214.346,111.153 213.502 C 110.477 213.119,109.924 212.662,109.924 212.486 C 109.924 210.657,103.805 209.463,101.756 210.893 M159.262 210.682 C 158.202 210.887,157.780 211.203,157.002 212.375 C 156.888 212.547,156.210 213.143,155.496 213.698 L 154.198 214.708 154.198 217.998 C 154.198 221.200,154.220 221.304,155.000 221.866 C 155.915 222.524,156.795 223.368,157.784 224.535 C 159.338 226.368,169.160 225.503,169.160 223.533 C 169.160 223.392,169.742 222.711,170.454 222.021 L 171.747 220.765 171.752 217.871 L 171.756 214.977 170.382 213.648 C 169.626 212.918,168.791 211.997,168.526 211.602 C 167.825 210.559,162.597 210.040,159.262 210.682 M218.206 210.675 C 217.299 210.970,216.183 211.966,216.183 212.481 C 216.183 212.643,215.668 213.088,215.038 213.470 C 213.446 214.438,213.445 214.441,213.440 217.928 C 213.435 220.891,213.474 221.082,214.216 221.745 C 215.723 223.092,216.342 223.705,217.021 224.520 L 217.706 225.344 222.398 225.344 L 227.090 225.344 227.667 224.507 C 227.985 224.047,228.849 223.095,229.587 222.392 L 230.930 221.113 231.077 218.077 C 231.207 215.379,231.159 214.984,230.650 214.537 C 229.569 213.588,228.371 212.366,227.697 211.525 C 226.958 210.603,220.272 210.004,218.206 210.675 M191.388 210.915 C 187.839 211.011,187.810 211.018,187.184 211.896 C 186.838 212.383,186.041 213.093,185.414 213.474 C 183.825 214.440,183.827 214.435,183.821 218.049 C 183.817 221.217,183.835 221.301,184.635 221.866 C 185.573 222.527,186.422 223.342,187.403 224.520 L 188.088 225.344 192.808 225.344 L 197.529 225.344 198.077 224.528 C 198.379 224.079,199.230 223.083,199.969 222.314 L 201.312 220.916 201.458 217.991 L 201.603 215.066 200.203 213.918 C 199.433 213.287,198.709 212.474,198.594 212.112 C 198.277 211.116,197.536 210.700,196.183 210.762 C 195.511 210.793,193.354 210.862,191.388 210.915 M295.954 218.095 C 296.372 218.642,297.109 219.295,297.593 219.545 C 298.077 219.795,298.983 220.504,299.606 221.120 C 300.229 221.737,300.989 222.321,301.295 222.418 C 301.602 222.515,302.079 222.978,302.355 223.446 C 302.632 223.914,303.349 224.817,303.948 225.453 C 305.283 226.868,305.305 226.634,303.693 228.200 C 302.526 229.334,302.320 229.730,302.138 231.186 C 301.956 232.641,301.770 232.998,300.735 233.879 C 300.079 234.438,299.542 235.062,299.542 235.266 C 299.542 235.469,299.205 236.000,298.793 236.444 L 298.044 237.252 287.592 237.252 C 277.280 237.252,277.129 237.243,276.432 236.588 C 275.482 235.696,275.500 235.637,277.252 233.922 C 278.092 233.100,278.779 232.272,278.779 232.083 C 278.779 231.743,279.738 230.631,282.443 227.833 C 283.198 227.052,284.319 225.794,284.933 225.038 C 285.547 224.282,286.945 222.735,288.041 221.599 C 289.136 220.463,290.466 218.985,290.996 218.316 C 292.346 216.612,294.742 216.505,295.954 218.095 M71.829 235.030 C 71.369 235.509,70.790 236.206,70.543 236.577 C 70.296 236.948,69.928 237.252,69.726 237.252 C 68.641 237.252,68.092 238.802,68.092 241.860 L 68.092 244.859 69.195 245.712 C 70.386 246.633,70.438 246.686,71.626 248.168 L 72.421 249.160 75.738 249.160 C 78.981 249.160,79.068 249.142,79.604 248.354 C 80.107 247.615,81.165 246.493,82.519 245.264 C 82.961 244.863,83.053 244.244,83.053 241.703 L 83.053 238.628 81.592 237.253 C 80.788 236.497,79.930 235.583,79.684 235.222 C 79.290 234.644,78.844 234.541,75.951 234.362 L 72.666 234.157 71.829 235.030 M101.345 235.191 C 100.293 236.370,100.311 236.352,98.855 237.665 L 97.710 238.698 97.710 241.632 L 97.710 244.565 99.963 246.863 L 102.217 249.160 105.437 249.160 C 108.596 249.160,108.670 249.144,109.281 248.321 C 110.593 246.551,111.004 246.113,111.357 246.110 C 112.766 246.098,113.371 238.902,112.058 237.778 C 111.720 237.489,111.315 237.252,111.157 237.252 C 111.000 237.252,110.494 236.737,110.033 236.107 C 108.677 234.253,108.539 234.198,105.255 234.198 L 102.230 234.198 101.345 235.191 M301.698 252.689 C 302.139 253.088,302.290 253.629,302.290 254.812 C 302.290 256.465,302.531 256.862,304.541 258.527 C 306.100 259.817,305.619 262.635,303.588 264.103 L 302.290 265.042 302.290 268.345 C 302.290 271.103,302.378 271.729,302.824 272.134 C 303.771 272.993,305.171 274.396,305.910 275.224 C 307.458 276.960,314.198 276.159,314.198 274.239 C 314.198 274.096,314.560 273.719,315.002 273.402 C 315.792 272.834,316.096 272.534,317.780 270.663 L 318.626 269.723 323.359 269.900 C 328.387 270.087,330.084 270.597,329.539 271.756 C 329.420 272.008,329.252 275.508,329.166 279.534 L 329.008 286.853 328.244 287.239 C 327.664 287.532,324.241 287.626,313.981 287.629 C 297.838 287.634,299.237 288.044,299.237 283.316 C 299.237 277.505,298.537 276.301,295.142 276.271 C 291.623 276.239,290.672 277.642,290.664 282.879 C 290.655 288.087,292.095 287.634,275.553 287.634 C 260.159 287.634,261.074 287.794,261.061 285.093 C 261.056 284.223,261.010 276.678,260.957 268.325 C 260.866 253.782,260.886 253.113,261.439 252.519 C 262.275 251.623,300.699 251.784,301.698 252.689 M198.497 255.148 C 199.601 255.242,200.685 255.430,200.905 255.566 C 201.664 256.035,201.359 286.089,200.587 286.870 C 199.599 287.871,185.619 287.999,184.574 287.017 L 183.865 286.351 183.831 271.288 C 183.798 256.541,183.810 256.213,184.415 255.650 C 185.070 255.040,193.636 254.734,198.497 255.148 M71.771 258.680 C 71.431 259.045,71.082 259.565,70.996 259.835 C 70.911 260.105,70.433 260.567,69.935 260.861 C 68.171 261.903,68.092 262.099,68.092 265.395 L 68.092 268.457 69.084 269.327 C 70.116 270.233,70.338 270.456,71.765 272.029 C 72.604 272.954,72.691 272.977,75.320 272.973 C 78.783 272.968,79.128 272.859,79.972 271.507 C 80.358 270.888,81.209 270.005,81.864 269.545 L 83.053 268.708 83.053 265.476 C 83.053 262.358,83.025 262.220,82.251 261.580 C 81.231 260.737,80.332 259.837,79.489 258.818 C 78.547 257.680,72.799 257.577,71.771 258.680 M101.615 258.511 C 100.965 259.330,99.431 260.869,98.498 261.639 L 97.622 262.362 97.805 265.609 C 97.969 268.518,98.061 268.911,98.689 269.396 C 99.962 270.378,100.603 271.006,101.222 271.878 C 102.629 273.858,109.370 273.060,110.079 270.829 C 110.161 270.572,110.675 270.101,111.221 269.784 C 112.636 268.961,112.662 268.882,112.667 265.406 C 112.672 262.032,112.715 262.139,110.664 260.425 C 110.341 260.155,109.711 259.502,109.264 258.974 L 108.452 258.015 105.230 258.015 C 102.623 258.015,101.934 258.110,101.615 258.511 M276.199 261.791 C 275.770 262.188,275.420 262.642,275.420 262.801 C 275.420 262.959,274.802 263.524,274.046 264.057 L 272.672 265.026 272.672 268.376 C 272.672 271.649,272.690 271.740,273.472 272.276 C 274.375 272.895,275.260 273.742,276.236 274.922 C 277.182 276.066,283.013 276.168,283.896 275.056 C 284.440 274.371,285.427 273.391,286.881 272.094 C 288.162 270.951,287.939 265.406,286.570 264.353 C 286.078 263.974,285.394 263.341,285.051 262.945 C 283.345 260.978,283.582 261.069,280.168 261.069 C 277.237 261.069,276.915 261.127,276.199 261.791 " stroke="none" fill="#050405" fill-rule="evenodd"></path></g></svg>